<svg width="24" height="24" viewBox="0 0 24 24" fill="none" xmlns="http://www.w3.org/2000/svg">
<path d="M6.74213 7.93405C6.42957 7.66225 5.95584 7.6953 5.68405 8.00787C5.41225 8.32043 5.4453 8.79416 5.75787 9.06595L9.53933 12.3542C10.9503 13.5812 13.0497 13.5812 14.4607 12.3542L18.2421 9.06595C18.5547 8.79416 18.5878 8.32043 18.316 8.00787C18.0442 7.6953 17.5704 7.66225 17.2579 7.93405L13.4764 11.2223C12.6298 11.9585 11.3702 11.9585 10.5236 11.2223L6.74213 7.93405Z" fill="#222222"/>
<path fill-rule="evenodd" clip-rule="evenodd" d="M6 4.25C3.92893 4.25 2.25 5.92893 2.25 8V16C2.25 18.0711 3.92893 19.75 6 19.75H18C20.0711 19.75 21.75 18.0711 21.75 16V8C21.75 5.92893 20.0711 4.25 18 4.25H6ZM3.75 8C3.75 6.75736 4.75736 5.75 6 5.75H18C19.2426 5.75 20.25 6.75736 20.25 8V16C20.25 17.2426 19.2426 18.25 18 18.25H6C4.75736 18.25 3.75 17.2426 3.75 16V8Z" fill="#222222"/>
</svg>
