<svg width="24" height="24" viewBox="0 0 24 24" fill="none" xmlns="http://www.w3.org/2000/svg">
<path fill-rule="evenodd" clip-rule="evenodd" d="M4.58014 2.55523C5.46531 1.67007 6.90044 1.67007 7.7856 2.55523L10.083 4.85259C10.972 5.74167 10.972 7.18317 10.083 8.07225C9.60746 8.54775 9.20388 9.07386 8.98599 9.59074C8.77393 10.0938 8.75522 10.5368 8.9503 10.9428C9.24551 11.5572 9.80431 12.3072 10.7917 13.2946C11.7792 14.282 12.5288 14.8408 13.1431 15.136C13.5491 15.3311 13.9921 15.3124 14.4952 15.1003C15.0121 14.8824 15.5382 14.4788 16.0137 14.0033C16.9028 13.1142 18.3443 13.1142 19.2333 14.0033L21.5307 16.3007C22.4159 17.1859 22.4159 18.621 21.5307 19.5061C19.7447 21.2921 17.1591 22.5618 14.5013 21.9794C12.2618 21.4886 9.64004 20.3025 6.71189 17.3744C3.78371 14.4462 2.59764 11.8241 2.1069 9.58459C1.52453 6.92683 2.79418 4.3412 4.58014 2.55523ZM6.72494 3.61589C6.42556 3.31651 5.94018 3.31651 5.64081 3.61589C4.06762 5.18908 3.13769 7.28082 3.57214 9.26353C3.99839 11.2088 5.03668 13.5778 7.77255 16.3137C10.5084 19.0496 12.8772 20.0879 14.8224 20.5142C16.8051 20.9486 18.8968 20.0187 20.47 18.4455C20.7694 18.1461 20.7694 17.6607 20.47 17.3614L18.1727 15.064C17.8694 14.7607 17.3776 14.7607 17.0743 15.064C16.5268 15.6115 15.8421 16.1603 15.0779 16.4825C14.2998 16.8105 13.3915 16.9195 12.4935 16.488C11.6594 16.0873 10.7705 15.3947 9.73103 14.3552C8.69146 13.3156 7.99898 12.4264 7.59827 11.5925C7.16681 10.6945 7.27579 9.78613 7.60379 9.00806C7.92595 8.24383 8.47482 7.55908 9.0223 7.01159C9.3256 6.70829 9.3256 6.21655 9.0223 5.91325L6.72494 3.61589Z" fill="#222222"/>
</svg>
