<svg width="24" height="24" viewBox="0 0 24 24" fill="none" xmlns="http://www.w3.org/2000/svg">
<path fill-rule="evenodd" clip-rule="evenodd" d="M8.64906 14.8669C8.66175 15.1664 8.73941 15.4747 8.898 15.7784C9.18116 16.3207 9.65624 16.7151 10.1157 17.0179C10.7366 17.427 11.233 17.7651 11.7371 18.1084L11.805 18.1546C12.3329 18.514 12.8737 18.8817 13.565 19.3348C13.7191 19.4358 13.8639 19.539 14.0312 19.6582C14.0667 19.6835 14.1033 19.7096 14.1412 19.7365C14.3425 19.8795 14.5834 20.0483 14.8401 20.1991C15.362 20.5057 16.0801 20.8179 16.9711 20.736C18.4588 20.5991 19.1202 19.235 19.3634 17.9349C19.874 15.2053 20.8921 9.21709 21.1318 6.69889C21.1519 6.48701 21.1722 6.13998 21.1116 5.76708C21.0546 5.4163 20.8885 4.81251 20.338 4.36588C20.0072 4.09742 19.6521 3.98007 19.4208 3.9248C19.1799 3.86727 18.9502 3.84815 18.7681 3.85135C18.2081 3.86122 17.6366 4.02183 16.793 4.32793C15.9236 4.64341 14.5968 5.18037 12.458 6.06997C10.9449 6.69934 7.93857 7.99434 3.45054 9.94966C3.03943 10.1145 2.63386 10.3122 2.29861 10.5612C1.9961 10.7858 1.48554 11.2484 1.39123 12.0007C1.32191 12.5536 1.48496 13.0708 1.81255 13.4734C2.09238 13.8174 2.44002 14.0142 2.6723 14.1267C3.01512 14.2928 3.47977 14.4381 3.8397 14.5507C3.92894 14.5786 4.01173 14.6045 4.08464 14.6282C4.49942 14.763 4.99636 14.9129 5.47264 15.0323C5.91411 15.143 6.45862 15.2595 6.91641 15.2694C7.52706 15.2826 8.10884 15.1233 8.64906 14.8669ZM10.8285 11.6661C10.169 12.109 9.43404 12.604 8.62347 13.1512C8.00718 13.5744 7.44895 13.7805 6.94881 13.7697C6.39743 13.7578 5.33681 13.458 4.54835 13.2017C4.43256 13.164 4.31961 13.1285 4.2106 13.0943C3.40919 12.8423 2.82067 12.6572 2.87958 12.1872C2.91444 11.9092 3.29738 11.6248 4.0284 11.3341C8.53017 9.37273 11.5321 8.07968 13.0341 7.45495C17.3226 5.67121 18.2137 5.36135 18.7945 5.35112C18.9223 5.34887 19.2079 5.38053 19.3929 5.53066C19.6699 5.7554 19.669 6.23582 19.6385 6.55677C19.4061 8.99858 18.4005 14.9242 17.889 17.6591C17.6725 18.8163 17.2462 19.2043 16.8336 19.2423C16.1235 19.3076 15.5487 18.8978 14.9088 18.4417C14.7407 18.3218 14.5681 18.1988 14.3873 18.0803C13.6778 17.6152 13.1295 17.2418 12.5797 16.8674C12.0763 16.5245 11.5717 16.1809 10.9411 15.7654C9.62886 14.9006 10.1782 14.3711 10.9107 13.665C11.0292 13.5506 11.1526 13.4317 11.2737 13.306C11.3173 13.2606 11.4981 13.0917 11.7623 12.8459C11.8253 12.7873 11.893 12.7243 11.9648 12.6576C12.6951 11.9786 13.8413 10.913 14.6361 10.1298C14.8977 9.87201 15.1212 9.64481 15.2793 9.47208C15.4272 9.31051 15.5178 9.19659 15.5287 9.14985C15.5383 9.10908 15.5472 8.95709 15.4569 8.87683C15.3666 8.79658 15.2333 8.82402 15.1372 8.84585C15.1129 8.85135 15.0243 8.90128 14.8713 8.99563C14.6987 9.10208 14.4441 9.26506 14.1076 9.48459C13.3886 9.95365 12.2956 10.6808 10.8285 11.6661Z" fill="#222222"/>
</svg>
